<mxfile host="app.diagrams.net" modified="2023-09-20T08:46:52.350Z" agent="Mozilla/5.0 (Windows NT 10.0; Win64; x64) AppleWebKit/537.36 (KHTML, like Gecko) Chrome/116.0.0.0 Safari/537.36" etag="vDL_BIHIucR7_elOCd4N" version="21.7.5" type="device">
  <diagram name="Seite-1" id="a682axMwNeqRh6z-60K7">
    <mxGraphModel dx="1050" dy="1711" grid="1" gridSize="10" guides="1" tooltips="1" connect="1" arrows="1" fold="1" page="1" pageScale="1" pageWidth="827" pageHeight="1169" math="0" shadow="0">
      <root>
        <mxCell id="0" />
        <mxCell id="1" parent="0" />
        <mxCell id="edX8xgkc2p0K10rOBP12-2" value="" style="rounded=0;whiteSpace=wrap;html=1;" vertex="1" parent="1">
          <mxGeometry x="69" y="-520" width="690" height="490" as="geometry" />
        </mxCell>
        <mxCell id="edX8xgkc2p0K10rOBP12-75" style="edgeStyle=orthogonalEdgeStyle;rounded=0;orthogonalLoop=1;jettySize=auto;html=1;exitX=1;exitY=0.25;exitDx=0;exitDy=0;entryX=0;entryY=0.5;entryDx=0;entryDy=0;" edge="1" parent="1" source="edX8xgkc2p0K10rOBP12-3" target="edX8xgkc2p0K10rOBP12-47">
          <mxGeometry relative="1" as="geometry" />
        </mxCell>
        <mxCell id="edX8xgkc2p0K10rOBP12-80" style="edgeStyle=orthogonalEdgeStyle;rounded=0;orthogonalLoop=1;jettySize=auto;html=1;exitX=0.75;exitY=0;exitDx=0;exitDy=0;entryX=0.25;entryY=0;entryDx=0;entryDy=0;" edge="1" parent="1" source="edX8xgkc2p0K10rOBP12-3" target="edX8xgkc2p0K10rOBP12-4">
          <mxGeometry relative="1" as="geometry" />
        </mxCell>
        <mxCell id="edX8xgkc2p0K10rOBP12-3" value="" style="rounded=0;whiteSpace=wrap;html=1;" vertex="1" parent="1">
          <mxGeometry x="100" y="-480" width="210" height="400" as="geometry" />
        </mxCell>
        <mxCell id="edX8xgkc2p0K10rOBP12-81" style="edgeStyle=orthogonalEdgeStyle;rounded=0;orthogonalLoop=1;jettySize=auto;html=1;exitX=0.25;exitY=0;exitDx=0;exitDy=0;entryX=0.75;entryY=0;entryDx=0;entryDy=0;" edge="1" parent="1" source="edX8xgkc2p0K10rOBP12-4" target="edX8xgkc2p0K10rOBP12-3">
          <mxGeometry relative="1" as="geometry" />
        </mxCell>
        <mxCell id="edX8xgkc2p0K10rOBP12-4" value="" style="rounded=0;whiteSpace=wrap;html=1;" vertex="1" parent="1">
          <mxGeometry x="510" y="-480" width="210" height="400" as="geometry" />
        </mxCell>
        <mxCell id="edX8xgkc2p0K10rOBP12-5" value="Backend" style="text;html=1;strokeColor=none;fillColor=none;align=center;verticalAlign=middle;whiteSpace=wrap;rounded=0;" vertex="1" parent="1">
          <mxGeometry x="170" y="-475" width="60" height="30" as="geometry" />
        </mxCell>
        <mxCell id="edX8xgkc2p0K10rOBP12-6" value="Frontend" style="text;html=1;strokeColor=none;fillColor=none;align=center;verticalAlign=middle;whiteSpace=wrap;rounded=0;" vertex="1" parent="1">
          <mxGeometry x="585" y="-470" width="60" height="30" as="geometry" />
        </mxCell>
        <mxCell id="edX8xgkc2p0K10rOBP12-56" style="edgeStyle=orthogonalEdgeStyle;rounded=0;orthogonalLoop=1;jettySize=auto;html=1;exitX=0.25;exitY=1;exitDx=0;exitDy=0;entryX=0.25;entryY=1;entryDx=0;entryDy=0;" edge="1" parent="1" source="edX8xgkc2p0K10rOBP12-8" target="edX8xgkc2p0K10rOBP12-16">
          <mxGeometry relative="1" as="geometry">
            <Array as="points">
              <mxPoint x="125" y="-330" />
              <mxPoint x="125" y="-330" />
            </Array>
          </mxGeometry>
        </mxCell>
        <mxCell id="edX8xgkc2p0K10rOBP12-57" style="edgeStyle=orthogonalEdgeStyle;rounded=0;orthogonalLoop=1;jettySize=auto;html=1;exitX=1;exitY=0.5;exitDx=0;exitDy=0;entryX=0;entryY=0.5;entryDx=0;entryDy=0;" edge="1" parent="1" source="edX8xgkc2p0K10rOBP12-8" target="edX8xgkc2p0K10rOBP12-10">
          <mxGeometry relative="1" as="geometry" />
        </mxCell>
        <mxCell id="edX8xgkc2p0K10rOBP12-72" style="edgeStyle=orthogonalEdgeStyle;rounded=0;orthogonalLoop=1;jettySize=auto;html=1;exitX=1;exitY=0.75;exitDx=0;exitDy=0;entryX=0;entryY=0.5;entryDx=0;entryDy=0;" edge="1" parent="1" source="edX8xgkc2p0K10rOBP12-8" target="edX8xgkc2p0K10rOBP12-11">
          <mxGeometry relative="1" as="geometry" />
        </mxCell>
        <mxCell id="edX8xgkc2p0K10rOBP12-82" style="edgeStyle=orthogonalEdgeStyle;rounded=0;orthogonalLoop=1;jettySize=auto;html=1;exitX=0.75;exitY=1;exitDx=0;exitDy=0;entryX=1;entryY=0.25;entryDx=0;entryDy=0;" edge="1" parent="1" source="edX8xgkc2p0K10rOBP12-8" target="edX8xgkc2p0K10rOBP12-12">
          <mxGeometry relative="1" as="geometry">
            <Array as="points">
              <mxPoint x="155" y="-340" />
              <mxPoint x="190" y="-340" />
              <mxPoint x="190" y="-215" />
            </Array>
          </mxGeometry>
        </mxCell>
        <mxCell id="edX8xgkc2p0K10rOBP12-8" value="" style="whiteSpace=wrap;html=1;aspect=fixed;" vertex="1" parent="1">
          <mxGeometry x="110" y="-420" width="60" height="60" as="geometry" />
        </mxCell>
        <mxCell id="edX8xgkc2p0K10rOBP12-9" value="" style="whiteSpace=wrap;html=1;aspect=fixed;" vertex="1" parent="1">
          <mxGeometry x="110" y="-320" width="60" height="60" as="geometry" />
        </mxCell>
        <mxCell id="edX8xgkc2p0K10rOBP12-58" style="edgeStyle=orthogonalEdgeStyle;rounded=0;orthogonalLoop=1;jettySize=auto;html=1;exitX=0;exitY=0.5;exitDx=0;exitDy=0;entryX=1;entryY=0.5;entryDx=0;entryDy=0;" edge="1" parent="1" source="edX8xgkc2p0K10rOBP12-10" target="edX8xgkc2p0K10rOBP12-8">
          <mxGeometry relative="1" as="geometry" />
        </mxCell>
        <mxCell id="edX8xgkc2p0K10rOBP12-10" value="" style="whiteSpace=wrap;html=1;aspect=fixed;" vertex="1" parent="1">
          <mxGeometry x="230" y="-420" width="60" height="60" as="geometry" />
        </mxCell>
        <mxCell id="edX8xgkc2p0K10rOBP12-60" style="edgeStyle=orthogonalEdgeStyle;rounded=0;orthogonalLoop=1;jettySize=auto;html=1;exitX=1;exitY=0.5;exitDx=0;exitDy=0;entryX=0;entryY=0.5;entryDx=0;entryDy=0;" edge="1" parent="1" source="edX8xgkc2p0K10rOBP12-11" target="edX8xgkc2p0K10rOBP12-52">
          <mxGeometry relative="1" as="geometry" />
        </mxCell>
        <mxCell id="edX8xgkc2p0K10rOBP12-73" style="edgeStyle=orthogonalEdgeStyle;rounded=0;orthogonalLoop=1;jettySize=auto;html=1;exitX=0;exitY=0.5;exitDx=0;exitDy=0;entryX=1;entryY=0.75;entryDx=0;entryDy=0;" edge="1" parent="1" source="edX8xgkc2p0K10rOBP12-11" target="edX8xgkc2p0K10rOBP12-8">
          <mxGeometry relative="1" as="geometry" />
        </mxCell>
        <mxCell id="edX8xgkc2p0K10rOBP12-11" value="" style="whiteSpace=wrap;html=1;aspect=fixed;" vertex="1" parent="1">
          <mxGeometry x="230" y="-320" width="60" height="60" as="geometry" />
        </mxCell>
        <mxCell id="edX8xgkc2p0K10rOBP12-12" value="" style="whiteSpace=wrap;html=1;aspect=fixed;" vertex="1" parent="1">
          <mxGeometry x="110" y="-230" width="60" height="60" as="geometry" />
        </mxCell>
        <mxCell id="edX8xgkc2p0K10rOBP12-13" value="app" style="text;html=1;strokeColor=none;fillColor=none;align=center;verticalAlign=middle;whiteSpace=wrap;rounded=0;" vertex="1" parent="1">
          <mxGeometry x="110" y="-445" width="60" height="30" as="geometry" />
        </mxCell>
        <mxCell id="edX8xgkc2p0K10rOBP12-14" value="chatgpt" style="text;html=1;strokeColor=none;fillColor=none;align=center;verticalAlign=middle;whiteSpace=wrap;rounded=0;" vertex="1" parent="1">
          <mxGeometry x="230" y="-445" width="60" height="30" as="geometry" />
        </mxCell>
        <mxCell id="edX8xgkc2p0K10rOBP12-15" value="databaseManager" style="text;html=1;strokeColor=none;fillColor=none;align=center;verticalAlign=middle;whiteSpace=wrap;rounded=0;" vertex="1" parent="1">
          <mxGeometry x="230" y="-350" width="60" height="30" as="geometry" />
        </mxCell>
        <mxCell id="edX8xgkc2p0K10rOBP12-16" value="mail" style="text;html=1;strokeColor=none;fillColor=none;align=center;verticalAlign=middle;whiteSpace=wrap;rounded=0;" vertex="1" parent="1">
          <mxGeometry x="110" y="-350" width="60" height="30" as="geometry" />
        </mxCell>
        <mxCell id="edX8xgkc2p0K10rOBP12-17" value="upsert" style="text;html=1;strokeColor=none;fillColor=none;align=center;verticalAlign=middle;whiteSpace=wrap;rounded=0;" vertex="1" parent="1">
          <mxGeometry x="110" y="-260" width="60" height="30" as="geometry" />
        </mxCell>
        <mxCell id="edX8xgkc2p0K10rOBP12-69" style="edgeStyle=orthogonalEdgeStyle;rounded=0;orthogonalLoop=1;jettySize=auto;html=1;exitX=0.75;exitY=1;exitDx=0;exitDy=0;entryX=0.25;entryY=0;entryDx=0;entryDy=0;" edge="1" parent="1" source="edX8xgkc2p0K10rOBP12-23" target="edX8xgkc2p0K10rOBP12-45">
          <mxGeometry relative="1" as="geometry" />
        </mxCell>
        <mxCell id="edX8xgkc2p0K10rOBP12-70" style="edgeStyle=orthogonalEdgeStyle;rounded=0;orthogonalLoop=1;jettySize=auto;html=1;exitX=0.5;exitY=1;exitDx=0;exitDy=0;entryX=0.5;entryY=1;entryDx=0;entryDy=0;" edge="1" parent="1" source="edX8xgkc2p0K10rOBP12-23" target="edX8xgkc2p0K10rOBP12-34">
          <mxGeometry relative="1" as="geometry" />
        </mxCell>
        <mxCell id="edX8xgkc2p0K10rOBP12-23" value="" style="rounded=0;whiteSpace=wrap;html=1;" vertex="1" parent="1">
          <mxGeometry x="515" y="-410" width="75" height="170" as="geometry" />
        </mxCell>
        <mxCell id="edX8xgkc2p0K10rOBP12-24" value="html" style="text;html=1;strokeColor=none;fillColor=none;align=center;verticalAlign=middle;whiteSpace=wrap;rounded=0;" vertex="1" parent="1">
          <mxGeometry x="532.5" y="-440" width="60" height="30" as="geometry" />
        </mxCell>
        <mxCell id="edX8xgkc2p0K10rOBP12-25" value="" style="whiteSpace=wrap;html=1;aspect=fixed;" vertex="1" parent="1">
          <mxGeometry x="532.5" y="-390" width="40" height="40" as="geometry" />
        </mxCell>
        <mxCell id="edX8xgkc2p0K10rOBP12-26" value="main" style="text;html=1;strokeColor=none;fillColor=none;align=center;verticalAlign=middle;whiteSpace=wrap;rounded=0;" vertex="1" parent="1">
          <mxGeometry x="522.5" y="-415" width="60" height="30" as="geometry" />
        </mxCell>
        <mxCell id="edX8xgkc2p0K10rOBP12-29" value="" style="whiteSpace=wrap;html=1;aspect=fixed;" vertex="1" parent="1">
          <mxGeometry x="532.5" y="-320" width="40" height="40" as="geometry" />
        </mxCell>
        <mxCell id="edX8xgkc2p0K10rOBP12-30" value="sources" style="text;html=1;strokeColor=none;fillColor=none;align=center;verticalAlign=middle;whiteSpace=wrap;rounded=0;" vertex="1" parent="1">
          <mxGeometry x="522.5" y="-350" width="60" height="30" as="geometry" />
        </mxCell>
        <mxCell id="edX8xgkc2p0K10rOBP12-64" style="edgeStyle=orthogonalEdgeStyle;rounded=0;orthogonalLoop=1;jettySize=auto;html=1;exitX=1;exitY=0.5;exitDx=0;exitDy=0;entryX=0;entryY=0.5;entryDx=0;entryDy=0;" edge="1" parent="1" source="edX8xgkc2p0K10rOBP12-31" target="edX8xgkc2p0K10rOBP12-45">
          <mxGeometry relative="1" as="geometry" />
        </mxCell>
        <mxCell id="edX8xgkc2p0K10rOBP12-31" value="" style="whiteSpace=wrap;html=1;aspect=fixed;" vertex="1" parent="1">
          <mxGeometry x="525" y="-190" width="80" height="80" as="geometry" />
        </mxCell>
        <mxCell id="edX8xgkc2p0K10rOBP12-63" style="edgeStyle=orthogonalEdgeStyle;rounded=0;orthogonalLoop=1;jettySize=auto;html=1;exitX=0;exitY=0.75;exitDx=0;exitDy=0;entryX=0.25;entryY=1;entryDx=0;entryDy=0;" edge="1" parent="1" source="edX8xgkc2p0K10rOBP12-32" target="edX8xgkc2p0K10rOBP12-23">
          <mxGeometry relative="1" as="geometry">
            <Array as="points">
              <mxPoint x="534" y="-192" />
            </Array>
          </mxGeometry>
        </mxCell>
        <mxCell id="edX8xgkc2p0K10rOBP12-32" value="script" style="text;html=1;strokeColor=none;fillColor=none;align=center;verticalAlign=middle;whiteSpace=wrap;rounded=0;" vertex="1" parent="1">
          <mxGeometry x="532.5" y="-215" width="60" height="30" as="geometry" />
        </mxCell>
        <mxCell id="edX8xgkc2p0K10rOBP12-68" style="edgeStyle=orthogonalEdgeStyle;rounded=0;orthogonalLoop=1;jettySize=auto;html=1;exitX=0.75;exitY=1;exitDx=0;exitDy=0;entryX=0.75;entryY=0;entryDx=0;entryDy=0;" edge="1" parent="1" source="edX8xgkc2p0K10rOBP12-34" target="edX8xgkc2p0K10rOBP12-45">
          <mxGeometry relative="1" as="geometry" />
        </mxCell>
        <mxCell id="edX8xgkc2p0K10rOBP12-71" style="edgeStyle=orthogonalEdgeStyle;rounded=0;orthogonalLoop=1;jettySize=auto;html=1;exitX=0.5;exitY=1;exitDx=0;exitDy=0;entryX=0.5;entryY=1;entryDx=0;entryDy=0;" edge="1" parent="1" source="edX8xgkc2p0K10rOBP12-34" target="edX8xgkc2p0K10rOBP12-23">
          <mxGeometry relative="1" as="geometry" />
        </mxCell>
        <mxCell id="edX8xgkc2p0K10rOBP12-34" value="" style="rounded=0;whiteSpace=wrap;html=1;" vertex="1" parent="1">
          <mxGeometry x="600" y="-410" width="110" height="170" as="geometry" />
        </mxCell>
        <mxCell id="edX8xgkc2p0K10rOBP12-35" value="css" style="text;html=1;strokeColor=none;fillColor=none;align=center;verticalAlign=middle;whiteSpace=wrap;rounded=0;" vertex="1" parent="1">
          <mxGeometry x="630" y="-440" width="60" height="30" as="geometry" />
        </mxCell>
        <mxCell id="edX8xgkc2p0K10rOBP12-37" value="" style="whiteSpace=wrap;html=1;aspect=fixed;" vertex="1" parent="1">
          <mxGeometry x="660" y="-320" width="40" height="40" as="geometry" />
        </mxCell>
        <mxCell id="edX8xgkc2p0K10rOBP12-38" value="" style="whiteSpace=wrap;html=1;aspect=fixed;" vertex="1" parent="1">
          <mxGeometry x="610" y="-320" width="40" height="40" as="geometry" />
        </mxCell>
        <mxCell id="edX8xgkc2p0K10rOBP12-39" value="" style="whiteSpace=wrap;html=1;aspect=fixed;" vertex="1" parent="1">
          <mxGeometry x="610" y="-385" width="40" height="40" as="geometry" />
        </mxCell>
        <mxCell id="edX8xgkc2p0K10rOBP12-40" value="" style="whiteSpace=wrap;html=1;aspect=fixed;" vertex="1" parent="1">
          <mxGeometry x="660" y="-385" width="40" height="40" as="geometry" />
        </mxCell>
        <mxCell id="edX8xgkc2p0K10rOBP12-41" value="chat" style="text;html=1;strokeColor=none;fillColor=none;align=center;verticalAlign=middle;whiteSpace=wrap;rounded=0;" vertex="1" parent="1">
          <mxGeometry x="650" y="-410" width="60" height="30" as="geometry" />
        </mxCell>
        <mxCell id="edX8xgkc2p0K10rOBP12-42" value="main" style="text;html=1;strokeColor=none;fillColor=none;align=center;verticalAlign=middle;whiteSpace=wrap;rounded=0;" vertex="1" parent="1">
          <mxGeometry x="600" y="-410" width="60" height="30" as="geometry" />
        </mxCell>
        <mxCell id="edX8xgkc2p0K10rOBP12-43" value="overview" style="text;html=1;strokeColor=none;fillColor=none;align=center;verticalAlign=middle;whiteSpace=wrap;rounded=0;" vertex="1" parent="1">
          <mxGeometry x="600" y="-345" width="60" height="30" as="geometry" />
        </mxCell>
        <mxCell id="edX8xgkc2p0K10rOBP12-44" value="settings" style="text;html=1;strokeColor=none;fillColor=none;align=center;verticalAlign=middle;whiteSpace=wrap;rounded=0;" vertex="1" parent="1">
          <mxGeometry x="650" y="-345" width="60" height="30" as="geometry" />
        </mxCell>
        <mxCell id="edX8xgkc2p0K10rOBP12-45" value="" style="whiteSpace=wrap;html=1;aspect=fixed;" vertex="1" parent="1">
          <mxGeometry x="620" y="-190" width="80" height="80" as="geometry" />
        </mxCell>
        <mxCell id="edX8xgkc2p0K10rOBP12-46" value="files" style="text;html=1;strokeColor=none;fillColor=none;align=center;verticalAlign=middle;whiteSpace=wrap;rounded=0;" vertex="1" parent="1">
          <mxGeometry x="630" y="-215" width="60" height="30" as="geometry" />
        </mxCell>
        <mxCell id="edX8xgkc2p0K10rOBP12-74" style="edgeStyle=orthogonalEdgeStyle;rounded=0;orthogonalLoop=1;jettySize=auto;html=1;exitX=0;exitY=0.5;exitDx=0;exitDy=0;entryX=1;entryY=0.25;entryDx=0;entryDy=0;" edge="1" parent="1" source="edX8xgkc2p0K10rOBP12-47" target="edX8xgkc2p0K10rOBP12-3">
          <mxGeometry relative="1" as="geometry" />
        </mxCell>
        <mxCell id="edX8xgkc2p0K10rOBP12-47" value="" style="rounded=0;whiteSpace=wrap;html=1;" vertex="1" parent="1">
          <mxGeometry x="354" y="-480" width="120" height="170" as="geometry" />
        </mxCell>
        <mxCell id="edX8xgkc2p0K10rOBP12-49" value="devtools" style="text;html=1;strokeColor=none;fillColor=none;align=center;verticalAlign=middle;whiteSpace=wrap;rounded=0;" vertex="1" parent="1">
          <mxGeometry x="384" y="-475" width="60" height="30" as="geometry" />
        </mxCell>
        <mxCell id="edX8xgkc2p0K10rOBP12-50" value="" style="whiteSpace=wrap;html=1;aspect=fixed;" vertex="1" parent="1">
          <mxGeometry x="374" y="-415" width="80" height="80" as="geometry" />
        </mxCell>
        <mxCell id="edX8xgkc2p0K10rOBP12-51" value="porg" style="text;html=1;strokeColor=none;fillColor=none;align=center;verticalAlign=middle;whiteSpace=wrap;rounded=0;" vertex="1" parent="1">
          <mxGeometry x="384" y="-440" width="60" height="30" as="geometry" />
        </mxCell>
        <mxCell id="edX8xgkc2p0K10rOBP12-61" style="edgeStyle=orthogonalEdgeStyle;rounded=0;orthogonalLoop=1;jettySize=auto;html=1;exitX=0;exitY=0.5;exitDx=0;exitDy=0;entryX=1;entryY=0.5;entryDx=0;entryDy=0;" edge="1" parent="1" source="edX8xgkc2p0K10rOBP12-52" target="edX8xgkc2p0K10rOBP12-11">
          <mxGeometry relative="1" as="geometry" />
        </mxCell>
        <mxCell id="edX8xgkc2p0K10rOBP12-52" value="" style="whiteSpace=wrap;html=1;aspect=fixed;" vertex="1" parent="1">
          <mxGeometry x="356" y="-263" width="116" height="116" as="geometry" />
        </mxCell>
        <mxCell id="edX8xgkc2p0K10rOBP12-53" value="dataset" style="text;html=1;strokeColor=none;fillColor=none;align=center;verticalAlign=middle;whiteSpace=wrap;rounded=0;" vertex="1" parent="1">
          <mxGeometry x="384" y="-293" width="60" height="30" as="geometry" />
        </mxCell>
        <mxCell id="edX8xgkc2p0K10rOBP12-78" value="" style="endArrow=classic;startArrow=classic;html=1;rounded=0;" edge="1" parent="1">
          <mxGeometry width="50" height="50" relative="1" as="geometry">
            <mxPoint x="474" y="-374" as="sourcePoint" />
            <mxPoint x="510" y="-380" as="targetPoint" />
          </mxGeometry>
        </mxCell>
      </root>
    </mxGraphModel>
  </diagram>
</mxfile>
